<svg id="svg"
    xmlns="http://www.w3.org/2000/svg"
    xmlns:xlink="http://www.w3.org/1999/xlink" width="400" height="400" viewBox="0, 0, 400,400">
    <g id="addPet">
        <path id="path0" d="M143.787 2.207 C 134.613 6.478,134.911 4.167,134.911 70.893 C 134.911 128.600,134.848 130.241,132.544 132.544 C 130.241 134.848,128.600 134.911,70.893 134.911 C 4.091 134.911,6.839 134.550,2.295 143.935 C -1.077 150.901,-0.806 253.056,2.598 257.863 C 7.891 265.339,5.376 265.072,70.710 265.081 C 128.594 265.089,130.241 265.152,132.544 267.456 C 134.848 269.760,134.911 271.400,134.911 329.150 C 134.911 408.944,126.518 400.222,202.851 399.749 C 269.167 399.338,264.308 400.581,264.820 383.900 L 265.142 373.373 253.577 367.246 C 247.216 363.876,239.045 360.013,235.418 358.660 C 231.792 357.308,225.267 354.055,220.918 351.432 L 213.011 346.664 193.918 350.255 C 183.416 352.230,172.749 353.846,170.214 353.846 C 149.479 353.846,143.160 330.830,153.162 291.735 C 159.034 268.785,158.798 261.314,152.110 258.520 C 142.344 254.439,126.452 252.746,97.041 252.653 C 60.380 252.536,57.107 251.141,46.406 231.063 C 30.678 201.554,32.353 180.028,50.627 176.841 C 68.750 173.680,96.939 167.512,105.125 164.917 C 115.222 161.716,115.720 161.356,127.510 148.745 C 133.396 142.450,145.165 137.383,163.295 133.340 C 176.252 130.450,175.790 130.836,176.816 122.063 C 180.113 93.890,189.643 66.481,198.830 58.750 C 208.373 50.720,213.981 52.115,220.370 64.105 C 223.124 69.274,228.228 77.068,231.713 81.426 C 250.320 104.694,257.478 133.495,252.069 163.327 L 250.759 170.550 263.462 183.796 C 270.448 191.081,280.928 202.500,286.750 209.172 C 299.382 223.648,299.556 223.682,310.070 213.763 C 328.674 196.214,344.350 190.106,354.658 196.391 C 364.730 202.532,364.981 214.650,355.688 246.154 C 353.288 254.290,351.057 261.879,350.730 263.018 C 349.760 266.402,386.807 266.121,392.338 262.703 C 400.001 257.967,400.000 257.976,400.000 200.070 C 400.000 127.004,408.603 134.911,329.107 134.911 C 271.400 134.911,269.759 134.848,267.456 132.544 C 265.152 130.241,265.089 128.594,265.081 70.710 C 265.072 5.376,265.339 7.891,257.863 2.598 C 253.276 -0.650,150.677 -1.001,143.787 2.207 M205.595 69.525 C 199.835 75.889,193.323 97.637,189.382 123.669 C 186.708 141.329,185.997 142.401,176.104 143.691 C 154.640 146.489,138.923 153.193,131.692 162.634 C 123.454 173.392,114.949 176.727,74.556 185.038 C 45.916 190.930,45.807 191.009,48.978 203.388 C 51.487 213.181,59.284 229.326,64.202 234.911 L 68.370 239.645 96.611 239.785 C 136.613 239.984,163.055 244.950,166.845 252.975 C 170.329 260.356,169.822 278.705,165.711 293.986 C 161.240 310.605,159.856 327.028,162.313 334.304 C 164.911 342.001,167.279 342.463,185.888 338.910 C 204.578 335.341,203.337 336.041,199.660 331.143 C 188.452 316.213,183.223 290.776,187.991 274.377 C 189.423 269.452,189.310 267.334,186.914 254.259 C 183.372 234.922,183.037 211.434,186.187 203.269 C 193.337 184.739,215.800 190.438,235.316 215.734 L 240.217 222.086 247.623 220.606 C 258.101 218.511,263.573 217.847,270.796 217.796 L 277.095 217.751 274.556 214.497 C 273.160 212.707,264.467 203.310,255.240 193.614 C 235.802 173.190,237.064 175.922,239.686 159.940 C 244.102 133.013,238.414 109.072,223.418 91.472 C 220.204 87.701,216.202 82.219,214.524 79.290 C 207.260 66.612,207.748 67.145,205.595 69.525 M197.557 209.108 C 195.478 215.407,196.937 240.152,200.369 256.791 C 203.146 270.257,203.152 270.445,200.995 276.584 C 191.623 303.247,209.978 335.009,242.148 347.799 C 247.430 349.899,255.345 353.716,259.735 356.282 C 270.178 362.384,272.825 362.266,289.063 354.965 C 331.325 335.963,345.591 313.238,338.001 277.001 C 336.212 268.459,336.808 264.631,343.175 243.787 C 350.271 220.558,351.666 211.007,348.435 207.776 C 343.934 203.274,329.154 211.926,312.616 228.743 L 305.113 236.372 297.823 233.916 C 286.814 230.206,258.973 230.295,245.085 234.084 C 239.615 235.576,234.785 236.373,234.351 235.854 C 233.916 235.335,230.802 231.118,227.431 226.481 C 213.485 207.305,200.621 199.824,197.557 209.108 " fill="#ffbe00" stroke="none" fill-rule="evenodd"></path>
    </g>
</svg>