<svg id="svg"
    xmlns="http://www.w3.org/2000/svg"
    xmlns:xlink="http://www.w3.org/1999/xlink" width="400" height="403.7558685446009" viewBox="0, 0, 400,403.7558685446009">
    <g id="svgg">
        <path id="path0" d="M107.000 2.846 C 20.856 14.883,-26.252 132.166,15.125 231.586 C 44.680 302.599,129.865 385.401,190.473 402.029 C 209.038 407.122,241.647 392.419,281.216 361.112 C 382.031 281.350,422.455 179.733,389.010 90.141 C 357.018 4.443,279.539 -22.173,205.004 26.932 L 200.149 30.130 193.267 25.701 C 165.304 7.703,133.170 -0.810,107.000 2.846 M172.007 110.389 C 187.442 121.239,191.640 149.308,179.881 163.046 C 159.186 187.223,128.313 143.263,146.726 115.835 C 152.897 106.643,163.445 104.371,172.007 110.389 M246.479 109.191 C 264.213 119.190,262.129 155.444,243.163 166.901 C 231.551 173.916,219.599 168.112,215.001 153.227 C 207.109 127.675,227.835 98.679,246.479 109.191 M113.601 153.514 C 125.343 159.464,134.351 176.984,133.017 191.274 C 130.594 217.224,103.694 219.374,90.863 194.643 C 77.234 168.373,91.610 142.370,113.601 153.514 M299.921 151.266 C 314.743 155.381,319.032 175.570,309.137 194.643 C 296.296 219.392,268.988 217.097,266.901 191.093 C 265.190 169.785,284.170 146.893,299.921 151.266 M216.859 196.367 C 255.704 206.660,277.161 251.230,253.222 271.898 C 233.774 288.689,183.826 292.080,156.914 278.436 C 106.091 252.670,158.510 180.905,216.859 196.367 " stroke="none" fill="#ffbe00" fill-rule="evenodd"></path>
    </g>
</svg>