<svg id="svg" version="1.1"
    xmlns="http://www.w3.org/2000/svg"
    xmlns:xlink="http://www.w3.org/1999/xlink" width="400" height="400" viewBox="0, 0, 400,400">
    <g id="svgg">
        <path id="path0" d="M10.774 7.292 C 6.235 10.861,6.259 10.494,6.649 71.963 C 7.055 135.899,7.077 136.147,13.844 155.331 C 29.387 199.387,67.331 231.206,113.151 238.606 L 123.327 240.249 123.846 257.653 C 124.959 294.927,134.715 318.976,158.235 342.421 C 223.601 407.580,332.472 377.160,355.767 287.228 C 358.188 277.883,358.211 277.477,358.579 239.175 L 358.949 200.547 363.685 199.158 C 415.046 184.088,405.472 106.281,351.935 103.660 C 294.334 100.841,278.789 183.020,333.867 199.178 L 338.673 200.588 338.645 232.330 C 338.608 273.466,337.260 283.466,329.524 299.979 C 301.401 360.014,223.858 375.649,175.994 330.937 C 153.189 309.632,143.793 285.472,143.722 247.952 L 143.707 240.070 149.662 239.460 C 203.522 233.942,250.082 189.461,259.403 134.621 C 261.170 124.228,261.636 13.212,259.927 10.018 C 257.956 6.336,254.369 5.492,240.686 5.492 L 227.735 5.492 224.622 8.604 C 217.123 16.103,222.501 25.629,234.233 25.629 L 240.732 25.629 240.732 74.022 C 240.732 132.967,239.802 140.152,229.516 160.641 C 191.633 236.104,85.365 240.093,42.193 167.673 C 28.478 144.666,26.545 132.245,26.545 67.144 L 26.545 25.629 33.480 25.629 C 45.749 25.629,50.979 16.055,43.044 8.121 L 40.415 5.492 26.738 5.492 C 14.526 5.492,12.817 5.685,10.774 7.292 M104.814 51.415 C 92.768 60.891,99.787 88.787,114.216 88.787 C 126.294 88.787,131.799 73.228,124.830 58.791 C 120.616 50.061,111.027 46.528,104.814 51.415 M150.210 51.001 C 140.181 55.941,136.652 76.030,144.230 85.036 C 152.863 95.296,167.813 86.288,169.102 70.050 C 170.293 55.049,161.004 45.684,150.210 51.001 M72.574 79.295 C 68.042 81.530,65.617 87.367,66.049 95.006 C 67.455 119.892,96.336 126.111,96.040 101.463 C 95.853 85.883,83.288 74.012,72.574 79.295 M185.355 79.027 C 168.454 86.704,167.205 117.140,183.789 117.159 C 198.944 117.176,208.729 91.086,197.462 80.703 C 194.639 78.102,189.084 77.333,185.355 79.027 M122.197 105.583 C 103.492 111.762,91.210 129.381,95.303 144.165 C 101.489 166.510,160.252 168.763,171.315 147.079 C 182.540 125.075,148.990 96.731,122.197 105.583 " stroke="none" fill="#51b1f8" fill-rule="evenodd"></path>
    </g>
</svg>