<svg id="svg"
    xmlns="http://www.w3.org/2000/svg"
    xmlns:xlink="http://www.w3.org/1999/xlink" width="400" height="400" viewBox="0, 0, 400,400">
    <g id="svgg">
        <path id="path0" d="M186.719 16.891 C 136.235 23.191,96.361 55.627,80.732 103.108 C 75.178 119.980,75.000 122.487,75.000 183.662 L 75.000 238.263 60.259 260.412 C 51.976 272.859,44.780 284.536,43.832 287.069 C 36.798 305.870,46.661 326.189,65.696 332.114 C 73.097 334.417,326.878 334.425,334.277 332.122 C 349.992 327.231,359.439 313.591,358.389 297.306 C 357.795 288.087,356.448 285.409,340.021 260.802 L 325.066 238.401 324.795 180.724 C 324.493 116.542,324.694 119.179,318.744 101.420 C 300.474 46.887,242.710 9.904,186.719 16.891 M153.230 352.308 C 167.399 392.955,229.567 393.369,246.454 352.930 L 247.677 350.000 200.051 350.000 L 152.425 350.000 153.230 352.308 " stroke="none" fill="#ffbe00" fill-rule="evenodd"></path>
    </g>
</svg>