<svg id="svg"
    xmlns="http://www.w3.org/2000/svg"
    xmlns:xlink="http://www.w3.org/1999/xlink" width="400" height="353.27868852459017" viewBox="0, 0, 400,353.27868852459017">
    <g id="svgg">
        <path id="path0" d="M121.904 54.923 C 120.653 55.300,118.808 56.370,117.806 57.301 C 116.804 58.233,114.726 59.830,113.190 60.850 C 110.423 62.687,107.490 69.931,107.406 75.137 C 107.390 76.113,106.922 77.064,106.367 77.249 C 105.031 77.695,104.918 102.115,106.239 104.987 C 111.312 116.015,112.154 117.141,118.076 120.824 C 123.609 124.266,133.393 125.639,134.242 123.094 C 134.418 122.564,134.926 122.131,135.369 122.131 C 139.046 122.131,144.862 113.585,146.262 106.126 C 146.597 104.336,147.299 102.609,147.821 102.286 C 149.118 101.484,149.151 77.233,147.856 76.405 C 147.354 76.083,146.658 74.898,146.310 73.770 C 144.902 69.211,140.957 61.770,138.984 59.955 C 137.830 58.893,136.885 57.676,136.885 57.249 C 136.885 54.868,127.128 53.353,121.904 54.923 M191.803 73.663 C 191.803 74.055,190.579 74.574,189.082 74.817 C 182.616 75.867,171.012 86.072,166.972 94.262 C 165.527 97.193,164.069 99.713,163.733 99.862 C 162.059 100.607,159.435 112.207,159.438 118.852 C 159.444 134.755,170.969 141.539,188.749 136.104 C 192.759 134.878,199.525 128.291,201.499 123.692 C 202.351 121.706,203.828 118.372,204.781 116.281 C 208.824 107.414,208.955 86.207,204.989 82.782 C 204.724 82.554,203.726 80.894,202.770 79.093 C 201.582 76.854,200.222 75.572,198.467 75.035 C 197.056 74.604,195.902 73.959,195.902 73.601 C 195.902 73.243,194.980 72.951,193.852 72.951 C 192.725 72.951,191.803 73.271,191.803 73.663 M51.013 78.020 C 45.049 82.250,43.686 111.969,49.253 116.393 C 49.536 116.619,50.744 118.647,51.936 120.900 C 57.852 132.080,67.754 137.371,82.436 137.197 C 92.253 137.080,93.892 136.378,95.147 131.748 C 97.993 121.247,88.910 89.729,81.671 84.986 C 80.525 84.235,78.740 82.744,77.704 81.673 C 75.627 79.524,73.912 78.887,67.213 77.771 C 56.352 75.962,53.861 76.000,51.013 78.020 M303.689 96.874 C 300.606 98.609,296.691 103.227,296.193 105.713 C 295.920 107.079,295.425 108.197,295.093 108.197 C 293.437 108.197,290.574 121.956,290.574 129.918 C 290.574 140.320,291.552 142.807,296.612 145.277 C 298.701 146.297,300.533 147.408,300.683 147.746 C 301.064 148.603,307.182 148.519,307.720 147.649 C 307.962 147.257,309.557 146.713,311.263 146.441 C 325.079 144.231,328.535 128.767,319.717 108.607 C 316.597 101.473,315.154 98.969,313.342 97.544 C 311.032 95.727,306.309 95.399,303.689 96.874 M254.098 107.907 C 251.654 108.889,248.378 112.627,247.441 115.504 C 246.915 117.120,246.076 118.707,245.578 119.031 C 244.503 119.730,244.657 130.036,245.764 131.436 C 246.173 131.954,246.766 133.809,247.082 135.559 C 249.089 146.685,255.973 156.780,262.987 158.881 C 268.073 160.405,278.182 160.122,280.133 158.402 C 285.669 153.518,285.682 137.571,280.160 124.590 C 276.047 114.921,260.852 105.194,254.098 107.907 M355.738 113.668 C 355.061 113.950,354.324 114.402,354.098 114.672 C 353.873 114.943,351.258 116.404,348.287 117.920 C 333.378 125.527,327.589 137.446,332.039 151.367 C 334.964 160.514,358.477 161.796,364.964 153.163 C 372.303 143.397,374.419 122.088,368.637 116.173 C 366.107 113.585,359.173 112.239,355.738 113.668 M10.836 129.177 C -11.469 136.994,8.779 175.170,37.143 178.777 C 40.833 179.246,44.493 179.972,45.276 180.389 C 47.179 181.403,53.871 181.359,54.508 180.328 C 54.787 179.877,55.725 179.508,56.593 179.508 C 57.461 179.508,59.375 178.431,60.848 177.115 L 63.525 174.723 63.486 164.615 C 63.422 147.568,55.768 136.936,38.115 129.366 C 33.729 127.486,16.012 127.363,10.836 129.177 M115.992 137.372 C 112.841 138.077,110.074 138.918,109.844 139.240 C 109.614 139.562,106.199 141.360,102.254 143.235 C 98.309 145.111,95.082 146.958,95.082 147.340 C 95.082 147.721,93.399 149.097,91.343 150.397 C 89.286 151.697,86.435 154.260,85.006 156.093 C 83.578 157.926,81.848 159.855,81.163 160.380 C 80.478 160.904,78.627 163.855,77.049 166.937 C 75.471 170.019,73.927 172.733,73.617 172.968 C 72.132 174.092,69.469 183.477,68.112 192.370 C 65.762 207.774,69.837 247.003,74.245 251.411 C 74.886 252.052,75.410 253.266,75.410 254.110 C 75.410 259.511,87.357 267.756,96.410 268.601 C 104.428 269.350,127.049 264.680,127.049 262.276 C 127.049 261.906,128.419 261.151,130.092 260.598 C 131.766 260.046,134.588 258.542,136.363 257.256 C 138.138 255.970,140.088 254.918,140.697 254.918 C 141.305 254.918,141.803 254.600,141.803 254.211 C 141.803 252.715,159.863 248.377,171.311 247.123 C 174.242 246.801,177.008 246.259,177.459 245.917 C 177.910 245.575,180.676 245.046,183.607 244.742 C 198.159 243.230,206.325 232.824,207.185 214.696 C 207.588 206.189,206.310 195.082,204.928 195.082 C 204.584 195.082,204.079 193.958,203.804 192.585 C 201.508 181.105,183.903 158.255,171.311 150.413 C 169.283 149.149,167.439 147.849,167.213 147.524 C 166.585 146.617,157.375 142.159,153.689 140.977 C 151.885 140.399,150.225 139.688,150.000 139.398 C 147.837 136.606,125.386 135.268,115.992 137.372 M372.541 153.409 C 354.407 160.251,346.223 188.607,361.704 190.956 C 366.746 191.721,377.241 190.484,381.397 188.633 C 383.289 187.792,385.827 186.868,387.037 186.582 C 389.756 185.938,394.515 180.197,395.906 175.882 C 397.655 170.455,396.184 157.377,393.823 157.377 C 393.228 157.377,392.245 156.882,391.640 156.277 C 388.481 153.118,377.631 151.488,372.541 153.409 M296.311 158.623 C 291.108 159.767,281.838 162.991,281.148 163.896 C 280.922 164.191,277.828 165.802,274.272 167.476 C 270.716 169.149,266.681 171.619,265.305 172.964 C 263.929 174.309,262.393 175.410,261.892 175.410 C 258.529 175.410,246.721 192.569,246.721 197.455 C 246.721 198.329,246.260 199.197,245.697 199.385 C 244.365 199.829,244.279 216.945,245.594 219.753 C 246.102 220.836,247.161 223.934,247.948 226.639 C 249.526 232.061,251.964 236.066,253.686 236.066 C 254.299 236.066,255.418 236.683,256.173 237.438 C 257.940 239.205,262.638 240.024,275.820 240.864 C 286.292 241.531,294.853 243.832,295.821 246.239 C 296.711 248.451,304.073 255.334,306.967 256.659 C 322.038 263.560,348.815 246.005,351.342 227.567 C 351.631 225.454,352.186 223.530,352.573 223.290 C 353.564 222.678,353.458 214.754,352.459 214.754 C 352.008 214.754,351.639 213.338,351.639 211.607 C 351.639 206.345,346.270 187.713,344.279 186.066 C 344.006 185.840,342.651 183.255,341.266 180.322 C 332.652 162.064,316.380 154.210,296.311 158.623 M158.256 165.652 C 169.886 171.252,171.770 174.043,171.024 184.559 C 170.375 193.697,168.319 199.045,163.371 204.461 C 155.339 213.255,152.459 217.307,152.459 219.813 C 152.459 221.184,151.368 223.831,149.961 225.877 L 147.462 229.508 140.897 229.508 C 133.933 229.508,127.689 228.330,125.023 226.512 C 124.133 225.906,122.701 225.410,121.840 225.410 C 120.979 225.410,119.556 224.580,118.678 223.566 C 117.418 222.110,115.597 221.522,110.046 220.777 C 103.031 219.835,103.000 219.820,98.770 215.418 C 90.953 207.283,89.324 201.134,92.186 190.561 C 93.576 185.425,98.978 179.033,100.577 180.632 C 100.853 180.908,101.509 180.776,102.034 180.340 C 102.650 179.829,105.446 179.829,109.897 180.341 C 125.642 182.151,130.671 180.944,133.475 174.681 C 138.364 163.761,147.453 160.449,158.256 165.652 M141.335 169.877 C 139.739 171.342,137.439 174.355,136.224 176.572 C 132.346 183.654,131.319 184.040,116.812 183.865 L 104.266 183.713 100.289 187.364 L 96.311 191.014 96.049 198.581 L 95.787 206.148 99.774 211.066 C 101.966 213.770,104.113 216.015,104.544 216.054 C 104.975 216.093,105.978 216.411,106.772 216.761 C 107.567 217.110,109.409 217.221,110.866 217.007 C 114.126 216.529,117.781 217.680,120.492 220.039 C 124.654 223.660,132.840 226.209,140.350 226.221 C 146.728 226.231,147.482 225.549,149.171 218.232 C 149.836 215.352,150.869 213.370,152.284 212.257 C 153.448 211.341,155.120 209.407,155.999 207.960 C 156.877 206.512,159.317 203.442,161.421 201.138 C 169.623 192.153,169.866 176.805,161.855 173.759 C 160.745 173.337,159.836 172.465,159.836 171.821 C 159.836 170.551,150.087 167.213,146.377 167.213 C 145.106 167.213,143.061 168.294,141.335 169.877 M301.089 186.971 C 306.202 192.283,308.674 194.302,309.669 193.978 C 319.883 190.641,319.926 190.638,325.387 192.832 C 333.704 196.174,336.178 204.937,331.229 213.525 C 328.853 217.648,328.832 217.663,317.213 223.424 C 316.086 223.983,313.777 224.700,312.081 225.018 C 308.381 225.711,303.700 228.007,301.203 230.353 C 298.087 233.280,291.972 232.375,289.955 228.689 C 289.091 227.111,286.825 224.160,284.919 222.131 C 280.477 217.403,277.051 212.702,277.044 211.325 C 277.041 210.732,276.306 209.139,275.410 207.787 C 272.572 203.503,273.103 192.719,276.457 186.489 C 279.617 180.623,281.502 179.536,288.551 179.520 L 293.906 179.508 301.089 186.971 M283.931 185.618 C 282.531 186.216,281.158 187.392,280.879 188.230 C 280.601 189.068,279.625 191.039,278.711 192.610 C 276.766 195.952,276.522 201.838,278.194 205.044 C 278.818 206.240,279.769 208.552,280.307 210.183 C 280.845 211.813,283.079 214.988,285.270 217.238 C 287.462 219.488,290.444 222.985,291.898 225.009 C 294.790 229.036,296.308 229.479,299.275 227.162 C 302.345 224.764,307.485 222.408,311.066 221.757 C 312.869 221.429,315.266 220.698,316.393 220.132 C 317.520 219.566,320.133 218.259,322.198 217.226 C 328.522 214.065,332.446 205.385,329.303 201.508 C 324.998 196.198,318.590 194.405,312.365 196.770 L 308.237 198.339 305.553 196.453 C 304.077 195.415,301.358 193.092,299.512 191.289 C 294.072 185.978,288.140 183.819,283.931 185.618 " stroke="none" fill="#ffbe00" fill-rule="evenodd"></path>
    </g>
</svg>