<svg id="svg"
    xmlns="http://www.w3.org/2000/svg"
    xmlns:xlink="http://www.w3.org/1999/xlink" width="400" height="400" viewBox="0, 0, 400,400">
    <g id="svgg">
        <path id="path0" d="M118.192 74.104 L 37.556 122.266 37.528 249.023 L 37.500 375.781 64.927 375.781 C 90.120 375.781,92.314 375.676,91.859 374.489 C 76.107 333.439,83.148 276.727,109.071 235.864 C 111.908 231.393,115.100 226.018,116.165 223.920 C 117.229 221.822,119.653 218.445,121.550 216.417 C 125.851 211.819,125.842 211.719,121.158 211.719 C 115.482 211.719,115.823 212.059,104.703 195.335 C 92.542 177.049,91.657 174.215,95.594 166.169 C 98.482 160.265,98.736 160.090,120.112 149.219 L 139.314 139.453 142.687 130.935 C 150.772 110.522,154.708 106.792,175.239 100.095 C 199.191 92.281,218.887 95.905,243.750 112.699 C 316.131 161.591,350.833 272.720,322.974 366.406 C 321.888 370.059,320.821 373.662,320.603 374.414 C 320.179 375.879,346.165 376.485,357.700 375.279 L 362.505 374.777 362.307 248.141 L 362.109 121.505 281.352 73.643 C 236.935 47.319,200.197 25.818,199.711 25.862 C 199.225 25.906,162.542 47.615,118.192 74.104 M178.246 111.294 C 161.841 116.708,160.155 118.277,153.914 133.948 C 148.120 148.495,149.209 147.235,137.016 153.510 C 129.628 157.312,126.266 159.447,126.467 160.209 C 128.611 168.352,124.903 180.014,118.331 185.800 C 116.413 187.488,114.844 189.174,114.844 189.547 C 114.844 190.825,121.471 200.000,122.393 200.000 C 123.972 200.000,183.938 194.449,184.069 194.290 C 184.136 194.208,185.446 191.636,186.978 188.575 C 189.799 182.939,190.802 182.031,194.205 182.031 C 199.957 182.031,200.374 186.599,195.530 196.552 C 191.010 205.839,191.198 205.743,174.805 207.078 L 162.500 208.081 162.500 217.930 L 162.500 227.779 173.991 233.616 C 193.061 243.302,199.593 251.191,203.408 269.141 C 204.682 275.133,205.948 278.854,207.590 281.433 C 212.233 288.722,213.015 298.363,209.543 305.520 C 207.363 310.014,207.152 309.130,211.788 314.939 C 214.913 318.856,216.544 320.191,219.414 321.178 C 240.321 328.372,257.038 348.187,261.025 370.501 L 261.969 375.781 285.114 375.781 L 308.259 375.781 311.565 363.867 C 331.424 292.305,319.463 219.995,278.259 162.513 L 274.609 157.422 274.207 165.625 C 272.840 193.451,242.947 206.541,222.921 188.082 C 215.096 180.869,213.344 175.548,212.570 156.641 C 211.846 138.971,211.036 136.008,203.385 123.047 C 193.089 105.607,194.079 106.070,178.246 111.294 M209.375 110.114 C 209.375 110.537,211.354 114.147,213.774 118.137 C 222.219 132.064,223.933 138.454,224.862 159.473 C 225.692 178.249,230.536 184.728,243.706 184.677 C 269.959 184.574,268.829 145.617,241.992 125.601 C 230.281 116.867,209.375 106.940,209.375 110.114 M178.185 142.127 C 179.976 143.918,180.469 145.111,180.469 147.656 C 180.469 154.774,172.160 158.218,167.127 153.185 C 165.336 151.394,164.844 150.201,164.844 147.656 C 164.844 145.111,165.336 143.918,167.127 142.127 C 168.918 140.336,170.111 139.844,172.656 139.844 C 175.201 139.844,176.394 140.336,178.185 142.127 M110.938 166.513 C 105.741 169.462,103.914 174.059,106.556 177.539 C 108.356 179.910,113.350 176.203,114.470 171.665 C 116.008 165.434,115.120 164.139,110.938 166.513 M234.843 212.837 C 237.035 213.834,241.341 217.021,244.414 219.920 L 250.000 225.189 255.586 219.920 C 262.935 212.987,268.074 210.589,275.391 210.680 C 292.948 210.898,304.729 229.708,297.081 245.313 C 294.583 250.408,252.620 292.188,250.000 292.188 C 247.380 292.188,205.417 250.408,202.919 245.313 C 193.114 225.306,214.480 203.572,234.843 212.837 M144.531 214.099 C 136.108 217.122,130.235 222.262,125.380 230.859 C 124.166 233.008,121.241 237.930,118.879 241.797 C 95.063 280.788,89.118 323.704,101.611 366.453 L 104.109 375.000 177.090 375.000 L 250.071 375.000 249.561 372.070 C 246.178 352.634,233.465 338.563,212.397 330.938 C 209.154 329.765,204.753 325.391,200.664 319.278 C 200.378 318.852,198.665 319.728,196.757 321.277 C 180.357 334.595,155.161 333.192,141.334 318.190 C 133.369 309.550,141.437 303.036,150.395 310.875 C 163.424 322.276,180.168 321.643,192.265 309.292 C 198.326 303.104,200.001 299.963,199.996 294.804 C 199.992 291.193,199.527 290.075,195.938 285.059 C 195.208 284.038,193.722 279.004,192.635 273.872 C 188.896 256.206,185.474 252.237,165.122 241.959 C 149.408 234.022,150.000 234.828,150.000 221.368 C 150.000 216.491,149.736 212.513,149.414 212.528 C 149.092 212.544,146.895 213.250,144.531 214.099 M222.090 222.698 C 215.610 224.072,212.290 228.631,212.682 235.615 C 213.019 241.619,213.157 241.795,233.932 262.493 L 250.000 278.501 266.068 262.493 C 288.334 240.310,290.013 237.641,286.719 229.688 C 282.245 218.887,272.483 219.545,260.370 231.462 C 249.831 241.832,250.169 241.832,239.607 231.438 C 232.096 224.047,230.843 223.225,225.781 222.363 C 225.137 222.253,223.476 222.404,222.090 222.698 M174.279 269.471 C 179.311 274.504,175.868 282.813,168.750 282.813 C 166.205 282.813,165.012 282.320,163.221 280.529 C 158.189 275.496,161.632 267.188,168.750 267.188 C 171.295 267.188,172.488 267.680,174.279 269.471 " stroke="none" fill="#ffbe00" fill-rule="evenodd"></path>
    </g>
</svg>