<svg id="svg" version="1.1"
    xmlns="http://www.w3.org/2000/svg"
    xmlns:xlink="http://www.w3.org/1999/xlink" width="400" height="451.15089514066494" viewBox="0, 0, 400,451.15089514066494">
    <g id="svgg">
        <path id="path0" d="M290.281 0.564 C 263.149 3.071,248.101 11.246,216.085 40.869 C 214.382 42.445,209.786 46.611,205.872 50.128 C 201.957 53.645,197.014 58.133,194.888 60.102 C 192.761 62.072,186.546 67.711,181.077 72.634 C 175.608 77.558,168.242 84.233,164.707 87.468 C 161.173 90.703,154.962 96.343,150.905 100.000 C 137.638 111.962,136.815 112.815,135.317 116.154 C 128.121 132.187,140.853 167.050,165.142 197.826 C 169.410 203.234,168.918 203.028,172.851 201.043 C 174.501 200.210,177.890 198.682,180.381 197.648 C 225.955 178.727,276.492 185.189,316.001 214.990 L 318.703 217.027 319.837 216.030 C 320.461 215.482,324.712 211.651,329.284 207.517 C 369.862 170.822,372.654 168.199,377.034 162.660 C 431.863 93.326,377.884 -7.533,290.281 0.564 M246.261 38.430 C 250.211 41.538,249.305 43.266,238.720 52.807 C 233.882 57.169,227.030 63.356,223.494 66.558 C 219.959 69.759,213.629 75.466,209.428 79.240 C 205.227 83.014,200.409 87.432,198.721 89.059 C 193.514 94.076,188.235 93.783,188.235 88.475 C 188.235 86.217,188.530 85.934,228.133 50.128 C 230.524 47.966,234.437 44.415,236.829 42.236 C 242.614 36.965,243.793 36.489,246.261 38.430 M182.376 97.419 C 184.590 99.633,184.146 102.006,180.941 105.086 C 164.189 121.188,159.818 123.647,157.575 118.231 C 156.479 115.585,157.209 114.524,165.078 107.327 C 178.759 94.814,179.402 94.445,182.376 97.419 M119.406 128.559 C 116.857 130.857,109.055 137.916,102.068 144.246 C 95.081 150.575,84.019 160.588,77.486 166.496 C 70.954 172.404,63.219 179.405,60.298 182.053 C 57.377 184.702,50.502 190.917,45.020 195.864 C 22.905 215.821,18.035 221.592,10.451 236.829 C -20.097 298.203,20.237 372.112,88.491 379.830 C 95.080 380.575,105.098 380.796,107.796 380.257 L 109.326 379.951 107.567 375.781 C 93.198 341.712,93.647 301.634,108.777 267.829 C 118.897 245.217,137.917 222.674,157.700 209.845 C 160.101 208.288,161.038 207.403,160.721 206.991 C 136.165 175.059,125.450 151.547,124.165 126.769 L 124.041 124.381 119.406 128.559 M219.901 196.691 C 134.662 207.058,84.000 292.061,115.620 371.660 C 130.289 408.585,165.659 438.576,204.804 447.280 C 293.797 467.068,373.674 391.205,358.523 301.285 C 347.575 236.311,284.632 188.819,219.901 196.691 M205.729 231.258 C 219.479 234.134,230.767 252.568,228.873 269.054 C 225.023 302.576,189.744 306.234,179.019 274.222 C 171.311 251.216,186.253 227.183,205.729 231.258 M271.867 231.974 C 284.818 236.478,292.136 253.321,288.532 270.332 C 284.045 291.517,264.509 302.823,250.109 292.570 C 249.279 291.979,248.333 291.661,248.006 291.863 C 247.680 292.064,247.541 292.021,247.699 291.766 C 247.856 291.511,246.985 290.183,245.763 288.814 C 225.755 266.395,245.736 222.888,271.867 231.974 M162.141 282.351 C 179.289 285.604,190.539 309.330,184.074 328.610 C 175.885 353.031,148.686 353.929,137.733 330.140 C 126.837 306.475,141.187 278.378,162.141 282.351 M311.435 282.377 C 332.188 285.744,339.710 317.970,324.271 337.372 C 310.846 354.244,288.326 349.157,282.145 327.855 C 275.389 304.576,291.744 279.182,311.435 282.377 M239.861 294.111 C 252.595 296.526,254.559 298.769,284.648 345.269 C 286.559 348.223,290.662 354.437,293.765 359.079 C 306.164 377.626,307.703 388.647,299.635 401.129 C 291.419 413.841,279.183 417.927,262.148 413.645 C 241.610 408.484,223.542 408.442,206.138 413.516 C 184.085 419.945,165.001 407.735,163.824 386.445 C 163.219 375.487,162.261 377.315,193.241 330.299 C 198.104 322.918,203.935 314.062,206.198 310.619 C 215.052 297.149,226.438 291.565,239.861 294.111 " stroke="none" fill="#ffbe00" fill-rule="evenodd"></path>
    </g>
</svg>