<svg style="position: absolute; width: 0; height: 0; overflow: hidden;" version="1.1"
    xmlns="http://www.w3.org/2000/svg"
    xmlns:xlink="http://www.w3.org/1999/xlink">
    <defs>
        <symbol id="icon-addPet" viewBox="0 0 20 20">
            <title>add-pet</title>
            <path d="M143.787 2.207 C 134.613 6.478,134.911 4.167,134.911 70.893 C 134.911 128.600,134.848 130.241,132.544 132.544 C 130.241 134.848,128.600 134.911,70.893 134.911 C 4.091 134.911,6.839 134.550,2.295 143.935 C -1.077 150.901,-0.806 253.056,2.598 257.863 C 7.891 265.339,5.376 265.072,70.710 265.081 C 128.594 265.089,130.241 265.152,132.544 267.456 C 134.848 269.760,134.911 271.400,134.911 329.150 C 134.911 408.944,126.518 400.222,202.851 399.749 C 269.167 399.338,264.308 400.581,264.820 383.900 L 265.142 373.373 253.577 367.246 C 247.216 363.876,239.045 360.013,235.418 358.660 C 231.792 357.308,225.267 354.055,220.918 351.432 L 213.011 346.664 193.918 350.255 C 183.416 352.230,172.749 353.846,170.214 353.846 C 149.479 353.846,143.160 330.830,153.162 291.735 C 159.034 268.785,158.798 261.314,152.110 258.520 C 142.344 254.439,126.452 252.746,97.041 252.653 C 60.380 252.536,57.107 251.141,46.406 231.063 C 30.678 201.554,32.353 180.028,50.627 176.841 C 68.750 173.680,96.939 167.512,105.125 164.917 C 115.222 161.716,115.720 161.356,127.510 148.745 C 133.396 142.450,145.165 137.383,163.295 133.340 C 176.252 130.450,175.790 130.836,176.816 122.063 C 180.113 93.890,189.643 66.481,198.830 58.750 C 208.373 50.720,213.981 52.115,220.370 64.105 C 223.124 69.274,228.228 77.068,231.713 81.426 C 250.320 104.694,257.478 133.495,252.069 163.327 L 250.759 170.550 263.462 183.796 C 270.448 191.081,280.928 202.500,286.750 209.172 C 299.382 223.648,299.556 223.682,310.070 213.763 C 328.674 196.214,344.350 190.106,354.658 196.391 C 364.730 202.532,364.981 214.650,355.688 246.154 C 353.288 254.290,351.057 261.879,350.730 263.018 C 349.760 266.402,386.807 266.121,392.338 262.703 C 400.001 257.967,400.000 257.976,400.000 200.070 C 400.000 127.004,408.603 134.911,329.107 134.911 C 271.400 134.911,269.759 134.848,267.456 132.544 C 265.152 130.241,265.089 128.594,265.081 70.710 C 265.072 5.376,265.339 7.891,257.863 2.598 C 253.276 -0.650,150.677 -1.001,143.787 2.207 M205.595 69.525 C 199.835 75.889,193.323 97.637,189.382 123.669 C 186.708 141.329,185.997 142.401,176.104 143.691 C 154.640 146.489,138.923 153.193,131.692 162.634 C 123.454 173.392,114.949 176.727,74.556 185.038 C 45.916 190.930,45.807 191.009,48.978 203.388 C 51.487 213.181,59.284 229.326,64.202 234.911 L 68.370 239.645 96.611 239.785 C 136.613 239.984,163.055 244.950,166.845 252.975 C 170.329 260.356,169.822 278.705,165.711 293.986 C 161.240 310.605,159.856 327.028,162.313 334.304 C 164.911 342.001,167.279 342.463,185.888 338.910 C 204.578 335.341,203.337 336.041,199.660 331.143 C 188.452 316.213,183.223 290.776,187.991 274.377 C 189.423 269.452,189.310 267.334,186.914 254.259 C 183.372 234.922,183.037 211.434,186.187 203.269 C 193.337 184.739,215.800 190.438,235.316 215.734 L 240.217 222.086 247.623 220.606 C 258.101 218.511,263.573 217.847,270.796 217.796 L 277.095 217.751 274.556 214.497 C 273.160 212.707,264.467 203.310,255.240 193.614 C 235.802 173.190,237.064 175.922,239.686 159.940 C 244.102 133.013,238.414 109.072,223.418 91.472 C 220.204 87.701,216.202 82.219,214.524 79.290 C 207.260 66.612,207.748 67.145,205.595 69.525 M197.557 209.108 C 195.478 215.407,196.937 240.152,200.369 256.791 C 203.146 270.257,203.152 270.445,200.995 276.584 C 191.623 303.247,209.978 335.009,242.148 347.799 C 247.430 349.899,255.345 353.716,259.735 356.282 C 270.178 362.384,272.825 362.266,289.063 354.965 C 331.325 335.963,345.591 313.238,338.001 277.001 C 336.212 268.459,336.808 264.631,343.175 243.787 C 350.271 220.558,351.666 211.007,348.435 207.776 C 343.934 203.274,329.154 211.926,312.616 228.743 L 305.113 236.372 297.823 233.916 C 286.814 230.206,258.973 230.295,245.085 234.084 C 239.615 235.576,234.785 236.373,234.351 235.854 C 233.916 235.335,230.802 231.118,227.431 226.481 C 213.485 207.305,200.621 199.824,197.557 209.108 "></path>
        </symbol>
        <symbol id="icon-adopt" viewBox="0 0 20 20">
            <title>adopt</title>
            <path d="M107.000 2.846 C 20.856 14.883,-26.252 132.166,15.125 231.586 C 44.680 302.599,129.865 385.401,190.473 402.029 C 209.038 407.122,241.647 392.419,281.216 361.112 C 382.031 281.350,422.455 179.733,389.010 90.141 C 357.018 4.443,279.539 -22.173,205.004 26.932 L 200.149 30.130 193.267 25.701 C 165.304 7.703,133.170 -0.810,107.000 2.846 M172.007 110.389 C 187.442 121.239,191.640 149.308,179.881 163.046 C 159.186 187.223,128.313 143.263,146.726 115.835 C 152.897 106.643,163.445 104.371,172.007 110.389 M246.479 109.191 C 264.213 119.190,262.129 155.444,243.163 166.901 C 231.551 173.916,219.599 168.112,215.001 153.227 C 207.109 127.675,227.835 98.679,246.479 109.191 M113.601 153.514 C 125.343 159.464,134.351 176.984,133.017 191.274 C 130.594 217.224,103.694 219.374,90.863 194.643 C 77.234 168.373,91.610 142.370,113.601 153.514 M299.921 151.266 C 314.743 155.381,319.032 175.570,309.137 194.643 C 296.296 219.392,268.988 217.097,266.901 191.093 C 265.190 169.785,284.170 146.893,299.921 151.266 M216.859 196.367 C 255.704 206.660,277.161 251.230,253.222 271.898 C 233.774 288.689,183.826 292.080,156.914 278.436 C 106.091 252.670,158.510 180.905,216.859 196.367 "></path>
        </symbol>
        <symbol id="icon-analyse" viewBox="0 0 20 20">
            <title>analyse</title>
            <path d="M10.774 7.292 C 6.235 10.861,6.259 10.494,6.649 71.963 C 7.055 135.899,7.077 136.147,13.844 155.331 C 29.387 199.387,67.331 231.206,113.151 238.606 L 123.327 240.249 123.846 257.653 C 124.959 294.927,134.715 318.976,158.235 342.421 C 223.601 407.580,332.472 377.160,355.767 287.228 C 358.188 277.883,358.211 277.477,358.579 239.175 L 358.949 200.547 363.685 199.158 C 415.046 184.088,405.472 106.281,351.935 103.660 C 294.334 100.841,278.789 183.020,333.867 199.178 L 338.673 200.588 338.645 232.330 C 338.608 273.466,337.260 283.466,329.524 299.979 C 301.401 360.014,223.858 375.649,175.994 330.937 C 153.189 309.632,143.793 285.472,143.722 247.952 L 143.707 240.070 149.662 239.460 C 203.522 233.942,250.082 189.461,259.403 134.621 C 261.170 124.228,261.636 13.212,259.927 10.018 C 257.956 6.336,254.369 5.492,240.686 5.492 L 227.735 5.492 224.622 8.604 C 217.123 16.103,222.501 25.629,234.233 25.629 L 240.732 25.629 240.732 74.022 C 240.732 132.967,239.802 140.152,229.516 160.641 C 191.633 236.104,85.365 240.093,42.193 167.673 C 28.478 144.666,26.545 132.245,26.545 67.144 L 26.545 25.629 33.480 25.629 C 45.749 25.629,50.979 16.055,43.044 8.121 L 40.415 5.492 26.738 5.492 C 14.526 5.492,12.817 5.685,10.774 7.292 M104.814 51.415 C 92.768 60.891,99.787 88.787,114.216 88.787 C 126.294 88.787,131.799 73.228,124.830 58.791 C 120.616 50.061,111.027 46.528,104.814 51.415 M150.210 51.001 C 140.181 55.941,136.652 76.030,144.230 85.036 C 152.863 95.296,167.813 86.288,169.102 70.050 C 170.293 55.049,161.004 45.684,150.210 51.001 M72.574 79.295 C 68.042 81.530,65.617 87.367,66.049 95.006 C 67.455 119.892,96.336 126.111,96.040 101.463 C 95.853 85.883,83.288 74.012,72.574 79.295 M185.355 79.027 C 168.454 86.704,167.205 117.140,183.789 117.159 C 198.944 117.176,208.729 91.086,197.462 80.703 C 194.639 78.102,189.084 77.333,185.355 79.027 M122.197 105.583 C 103.492 111.762,91.210 129.381,95.303 144.165 C 101.489 166.510,160.252 168.763,171.315 147.079 C 182.540 125.075,148.990 96.731,122.197 105.583"></path>
        </symbol>
        <symbol id="icon-bell" viewBox="0 0 20 20">
            <title>bell</title>
            <path d="M186.719 16.891 C 136.235 23.191,96.361 55.627,80.732 103.108 C 75.178 119.980,75.000 122.487,75.000 183.662 L 75.000 238.263 60.259 260.412 C 51.976 272.859,44.780 284.536,43.832 287.069 C 36.798 305.870,46.661 326.189,65.696 332.114 C 73.097 334.417,326.878 334.425,334.277 332.122 C 349.992 327.231,359.439 313.591,358.389 297.306 C 357.795 288.087,356.448 285.409,340.021 260.802 L 325.066 238.401 324.795 180.724 C 324.493 116.542,324.694 119.179,318.744 101.420 C 300.474 46.887,242.710 9.904,186.719 16.891 M153.230 352.308 C 167.399 392.955,229.567 393.369,246.454 352.930 L 247.677 350.000 200.051 350.000 L 152.425 350.000 153.230 352.308"></path>
        </symbol>
        <symbol id="icon-home" viewBox="0 0 20 20">
            <title>home</title>
            <path d="M189.453 1.056 C 179.747 4.265,181.633 2.506,93.129 90.895 C -4.717 188.615,0.000 183.089,0.000 200.000 C -0.000 220.899,13.978 235.372,35.931 237.203 L 42.112 237.718 42.364 301.476 C 42.611 363.972,42.649 365.320,44.252 369.549 C 50.097 384.968,59.857 394.493,74.165 398.740 C 81.335 400.869,152.507 400.609,156.062 398.442 C 162.005 394.818,161.712 397.735,161.720 342.188 C 161.729 283.549,161.750 283.409,171.705 277.557 L 175.391 275.391 200.061 275.391 L 224.732 275.391 228.577 277.762 C 238.304 283.762,238.262 283.484,238.273 342.812 C 238.282 395.512,238.125 393.505,242.566 397.656 L 244.656 399.609 282.254 399.827 C 307.433 399.972,321.221 399.760,323.998 399.183 C 334.782 396.945,347.245 387.446,352.151 377.725 C 357.660 366.809,357.343 371.252,357.629 301.074 L 357.889 237.695 364.296 237.142 C 386.424 235.234,399.609 221.366,399.609 200.000 C 399.609 182.153,408.103 192.160,307.971 92.029 C 208.635 -7.308,217.813 0.583,201.172 0.214 C 195.648 0.091,191.462 0.392,189.453 1.056"></path>
        </symbol>
        <symbol id="icon-logo" viewBox="0 0 20 20">
            <title>logo</title>
            <path d="M121.904 54.923 C 120.653 55.300,118.808 56.370,117.806 57.301 C 116.804 58.233,114.726 59.830,113.190 60.850 C 110.423 62.687,107.490 69.931,107.406 75.137 C 107.390 76.113,106.922 77.064,106.367 77.249 C 105.031 77.695,104.918 102.115,106.239 104.987 C 111.312 116.015,112.154 117.141,118.076 120.824 C 123.609 124.266,133.393 125.639,134.242 123.094 C 134.418 122.564,134.926 122.131,135.369 122.131 C 139.046 122.131,144.862 113.585,146.262 106.126 C 146.597 104.336,147.299 102.609,147.821 102.286 C 149.118 101.484,149.151 77.233,147.856 76.405 C 147.354 76.083,146.658 74.898,146.310 73.770 C 144.902 69.211,140.957 61.770,138.984 59.955 C 137.830 58.893,136.885 57.676,136.885 57.249 C 136.885 54.868,127.128 53.353,121.904 54.923 M191.803 73.663 C 191.803 74.055,190.579 74.574,189.082 74.817 C 182.616 75.867,171.012 86.072,166.972 94.262 C 165.527 97.193,164.069 99.713,163.733 99.862 C 162.059 100.607,159.435 112.207,159.438 118.852 C 159.444 134.755,170.969 141.539,188.749 136.104 C 192.759 134.878,199.525 128.291,201.499 123.692 C 202.351 121.706,203.828 118.372,204.781 116.281 C 208.824 107.414,208.955 86.207,204.989 82.782 C 204.724 82.554,203.726 80.894,202.770 79.093 C 201.582 76.854,200.222 75.572,198.467 75.035 C 197.056 74.604,195.902 73.959,195.902 73.601 C 195.902 73.243,194.980 72.951,193.852 72.951 C 192.725 72.951,191.803 73.271,191.803 73.663 M51.013 78.020 C 45.049 82.250,43.686 111.969,49.253 116.393 C 49.536 116.619,50.744 118.647,51.936 120.900 C 57.852 132.080,67.754 137.371,82.436 137.197 C 92.253 137.080,93.892 136.378,95.147 131.748 C 97.993 121.247,88.910 89.729,81.671 84.986 C 80.525 84.235,78.740 82.744,77.704 81.673 C 75.627 79.524,73.912 78.887,67.213 77.771 C 56.352 75.962,53.861 76.000,51.013 78.020 M303.689 96.874 C 300.606 98.609,296.691 103.227,296.193 105.713 C 295.920 107.079,295.425 108.197,295.093 108.197 C 293.437 108.197,290.574 121.956,290.574 129.918 C 290.574 140.320,291.552 142.807,296.612 145.277 C 298.701 146.297,300.533 147.408,300.683 147.746 C 301.064 148.603,307.182 148.519,307.720 147.649 C 307.962 147.257,309.557 146.713,311.263 146.441 C 325.079 144.231,328.535 128.767,319.717 108.607 C 316.597 101.473,315.154 98.969,313.342 97.544 C 311.032 95.727,306.309 95.399,303.689 96.874 M254.098 107.907 C 251.654 108.889,248.378 112.627,247.441 115.504 C 246.915 117.120,246.076 118.707,245.578 119.031 C 244.503 119.730,244.657 130.036,245.764 131.436 C 246.173 131.954,246.766 133.809,247.082 135.559 C 249.089 146.685,255.973 156.780,262.987 158.881 C 268.073 160.405,278.182 160.122,280.133 158.402 C 285.669 153.518,285.682 137.571,280.160 124.590 C 276.047 114.921,260.852 105.194,254.098 107.907 M355.738 113.668 C 355.061 113.950,354.324 114.402,354.098 114.672 C 353.873 114.943,351.258 116.404,348.287 117.920 C 333.378 125.527,327.589 137.446,332.039 151.367 C 334.964 160.514,358.477 161.796,364.964 153.163 C 372.303 143.397,374.419 122.088,368.637 116.173 C 366.107 113.585,359.173 112.239,355.738 113.668 M10.836 129.177 C -11.469 136.994,8.779 175.170,37.143 178.777 C 40.833 179.246,44.493 179.972,45.276 180.389 C 47.179 181.403,53.871 181.359,54.508 180.328 C 54.787 179.877,55.725 179.508,56.593 179.508 C 57.461 179.508,59.375 178.431,60.848 177.115 L 63.525 174.723 63.486 164.615 C 63.422 147.568,55.768 136.936,38.115 129.366 C 33.729 127.486,16.012 127.363,10.836 129.177 M115.992 137.372 C 112.841 138.077,110.074 138.918,109.844 139.240 C 109.614 139.562,106.199 141.360,102.254 143.235 C 98.309 145.111,95.082 146.958,95.082 147.340 C 95.082 147.721,93.399 149.097,91.343 150.397 C 89.286 151.697,86.435 154.260,85.006 156.093 C 83.578 157.926,81.848 159.855,81.163 160.380 C 80.478 160.904,78.627 163.855,77.049 166.937 C 75.471 170.019,73.927 172.733,73.617 172.968 C 72.132 174.092,69.469 183.477,68.112 192.370 C 65.762 207.774,69.837 247.003,74.245 251.411 C 74.886 252.052,75.410 253.266,75.410 254.110 C 75.410 259.511,87.357 267.756,96.410 268.601 C 104.428 269.350,127.049 264.680,127.049 262.276 C 127.049 261.906,128.419 261.151,130.092 260.598 C 131.766 260.046,134.588 258.542,136.363 257.256 C 138.138 255.970,140.088 254.918,140.697 254.918 C 141.305 254.918,141.803 254.600,141.803 254.211 C 141.803 252.715,159.863 248.377,171.311 247.123 C 174.242 246.801,177.008 246.259,177.459 245.917 C 177.910 245.575,180.676 245.046,183.607 244.742 C 198.159 243.230,206.325 232.824,207.185 214.696 C 207.588 206.189,206.310 195.082,204.928 195.082 C 204.584 195.082,204.079 193.958,203.804 192.585 C 201.508 181.105,183.903 158.255,171.311 150.413 C 169.283 149.149,167.439 147.849,167.213 147.524 C 166.585 146.617,157.375 142.159,153.689 140.977 C 151.885 140.399,150.225 139.688,150.000 139.398 C 147.837 136.606,125.386 135.268,115.992 137.372 M372.541 153.409 C 354.407 160.251,346.223 188.607,361.704 190.956 C 366.746 191.721,377.241 190.484,381.397 188.633 C 383.289 187.792,385.827 186.868,387.037 186.582 C 389.756 185.938,394.515 180.197,395.906 175.882 C 397.655 170.455,396.184 157.377,393.823 157.377 C 393.228 157.377,392.245 156.882,391.640 156.277 C 388.481 153.118,377.631 151.488,372.541 153.409 M296.311 158.623 C 291.108 159.767,281.838 162.991,281.148 163.896 C 280.922 164.191,277.828 165.802,274.272 167.476 C 270.716 169.149,266.681 171.619,265.305 172.964 C 263.929 174.309,262.393 175.410,261.892 175.410 C 258.529 175.410,246.721 192.569,246.721 197.455 C 246.721 198.329,246.260 199.197,245.697 199.385 C 244.365 199.829,244.279 216.945,245.594 219.753 C 246.102 220.836,247.161 223.934,247.948 226.639 C 249.526 232.061,251.964 236.066,253.686 236.066 C 254.299 236.066,255.418 236.683,256.173 237.438 C 257.940 239.205,262.638 240.024,275.820 240.864 C 286.292 241.531,294.853 243.832,295.821 246.239 C 296.711 248.451,304.073 255.334,306.967 256.659 C 322.038 263.560,348.815 246.005,351.342 227.567 C 351.631 225.454,352.186 223.530,352.573 223.290 C 353.564 222.678,353.458 214.754,352.459 214.754 C 352.008 214.754,351.639 213.338,351.639 211.607 C 351.639 206.345,346.270 187.713,344.279 186.066 C 344.006 185.840,342.651 183.255,341.266 180.322 C 332.652 162.064,316.380 154.210,296.311 158.623 M158.256 165.652 C 169.886 171.252,171.770 174.043,171.024 184.559 C 170.375 193.697,168.319 199.045,163.371 204.461 C 155.339 213.255,152.459 217.307,152.459 219.813 C 152.459 221.184,151.368 223.831,149.961 225.877 L 147.462 229.508 140.897 229.508 C 133.933 229.508,127.689 228.330,125.023 226.512 C 124.133 225.906,122.701 225.410,121.840 225.410 C 120.979 225.410,119.556 224.580,118.678 223.566 C 117.418 222.110,115.597 221.522,110.046 220.777 C 103.031 219.835,103.000 219.820,98.770 215.418 C 90.953 207.283,89.324 201.134,92.186 190.561 C 93.576 185.425,98.978 179.033,100.577 180.632 C 100.853 180.908,101.509 180.776,102.034 180.340 C 102.650 179.829,105.446 179.829,109.897 180.341 C 125.642 182.151,130.671 180.944,133.475 174.681 C 138.364 163.761,147.453 160.449,158.256 165.652 M141.335 169.877 C 139.739 171.342,137.439 174.355,136.224 176.572 C 132.346 183.654,131.319 184.040,116.812 183.865 L 104.266 183.713 100.289 187.364 L 96.311 191.014 96.049 198.581 L 95.787 206.148 99.774 211.066 C 101.966 213.770,104.113 216.015,104.544 216.054 C 104.975 216.093,105.978 216.411,106.772 216.761 C 107.567 217.110,109.409 217.221,110.866 217.007 C 114.126 216.529,117.781 217.680,120.492 220.039 C 124.654 223.660,132.840 226.209,140.350 226.221 C 146.728 226.231,147.482 225.549,149.171 218.232 C 149.836 215.352,150.869 213.370,152.284 212.257 C 153.448 211.341,155.120 209.407,155.999 207.960 C 156.877 206.512,159.317 203.442,161.421 201.138 C 169.623 192.153,169.866 176.805,161.855 173.759 C 160.745 173.337,159.836 172.465,159.836 171.821 C 159.836 170.551,150.087 167.213,146.377 167.213 C 145.106 167.213,143.061 168.294,141.335 169.877 M301.089 186.971 C 306.202 192.283,308.674 194.302,309.669 193.978 C 319.883 190.641,319.926 190.638,325.387 192.832 C 333.704 196.174,336.178 204.937,331.229 213.525 C 328.853 217.648,328.832 217.663,317.213 223.424 C 316.086 223.983,313.777 224.700,312.081 225.018 C 308.381 225.711,303.700 228.007,301.203 230.353 C 298.087 233.280,291.972 232.375,289.955 228.689 C 289.091 227.111,286.825 224.160,284.919 222.131 C 280.477 217.403,277.051 212.702,277.044 211.325 C 277.041 210.732,276.306 209.139,275.410 207.787 C 272.572 203.503,273.103 192.719,276.457 186.489 C 279.617 180.623,281.502 179.536,288.551 179.520 L 293.906 179.508 301.089 186.971 M283.931 185.618 C 282.531 186.216,281.158 187.392,280.879 188.230 C 280.601 189.068,279.625 191.039,278.711 192.610 C 276.766 195.952,276.522 201.838,278.194 205.044 C 278.818 206.240,279.769 208.552,280.307 210.183 C 280.845 211.813,283.079 214.988,285.270 217.238 C 287.462 219.488,290.444 222.985,291.898 225.009 C 294.790 229.036,296.308 229.479,299.275 227.162 C 302.345 224.764,307.485 222.408,311.066 221.757 C 312.869 221.429,315.266 220.698,316.393 220.132 C 317.520 219.566,320.133 218.259,322.198 217.226 C 328.522 214.065,332.446 205.385,329.303 201.508 C 324.998 196.198,318.590 194.405,312.365 196.770 L 308.237 198.339 305.553 196.453 C 304.077 195.415,301.358 193.092,299.512 191.289 C 294.072 185.978,288.140 183.819,283.931 185.618"></path>
        </symbol>
        <symbol id="icon-pill" viewBox="0 0 20 20">
            <title>pill</title>
            <path d="M290.281 0.564 C 263.149 3.071,248.101 11.246,216.085 40.869 C 214.382 42.445,209.786 46.611,205.872 50.128 C 201.957 53.645,197.014 58.133,194.888 60.102 C 192.761 62.072,186.546 67.711,181.077 72.634 C 175.608 77.558,168.242 84.233,164.707 87.468 C 161.173 90.703,154.962 96.343,150.905 100.000 C 137.638 111.962,136.815 112.815,135.317 116.154 C 128.121 132.187,140.853 167.050,165.142 197.826 C 169.410 203.234,168.918 203.028,172.851 201.043 C 174.501 200.210,177.890 198.682,180.381 197.648 C 225.955 178.727,276.492 185.189,316.001 214.990 L 318.703 217.027 319.837 216.030 C 320.461 215.482,324.712 211.651,329.284 207.517 C 369.862 170.822,372.654 168.199,377.034 162.660 C 431.863 93.326,377.884 -7.533,290.281 0.564 M246.261 38.430 C 250.211 41.538,249.305 43.266,238.720 52.807 C 233.882 57.169,227.030 63.356,223.494 66.558 C 219.959 69.759,213.629 75.466,209.428 79.240 C 205.227 83.014,200.409 87.432,198.721 89.059 C 193.514 94.076,188.235 93.783,188.235 88.475 C 188.235 86.217,188.530 85.934,228.133 50.128 C 230.524 47.966,234.437 44.415,236.829 42.236 C 242.614 36.965,243.793 36.489,246.261 38.430 M182.376 97.419 C 184.590 99.633,184.146 102.006,180.941 105.086 C 164.189 121.188,159.818 123.647,157.575 118.231 C 156.479 115.585,157.209 114.524,165.078 107.327 C 178.759 94.814,179.402 94.445,182.376 97.419 M119.406 128.559 C 116.857 130.857,109.055 137.916,102.068 144.246 C 95.081 150.575,84.019 160.588,77.486 166.496 C 70.954 172.404,63.219 179.405,60.298 182.053 C 57.377 184.702,50.502 190.917,45.020 195.864 C 22.905 215.821,18.035 221.592,10.451 236.829 C -20.097 298.203,20.237 372.112,88.491 379.830 C 95.080 380.575,105.098 380.796,107.796 380.257 L 109.326 379.951 107.567 375.781 C 93.198 341.712,93.647 301.634,108.777 267.829 C 118.897 245.217,137.917 222.674,157.700 209.845 C 160.101 208.288,161.038 207.403,160.721 206.991 C 136.165 175.059,125.450 151.547,124.165 126.769 L 124.041 124.381 119.406 128.559 M219.901 196.691 C 134.662 207.058,84.000 292.061,115.620 371.660 C 130.289 408.585,165.659 438.576,204.804 447.280 C 293.797 467.068,373.674 391.205,358.523 301.285 C 347.575 236.311,284.632 188.819,219.901 196.691 M205.729 231.258 C 219.479 234.134,230.767 252.568,228.873 269.054 C 225.023 302.576,189.744 306.234,179.019 274.222 C 171.311 251.216,186.253 227.183,205.729 231.258 M271.867 231.974 C 284.818 236.478,292.136 253.321,288.532 270.332 C 284.045 291.517,264.509 302.823,250.109 292.570 C 249.279 291.979,248.333 291.661,248.006 291.863 C 247.680 292.064,247.541 292.021,247.699 291.766 C 247.856 291.511,246.985 290.183,245.763 288.814 C 225.755 266.395,245.736 222.888,271.867 231.974 M162.141 282.351 C 179.289 285.604,190.539 309.330,184.074 328.610 C 175.885 353.031,148.686 353.929,137.733 330.140 C 126.837 306.475,141.187 278.378,162.141 282.351 M311.435 282.377 C 332.188 285.744,339.710 317.970,324.271 337.372 C 310.846 354.244,288.326 349.157,282.145 327.855 C 275.389 304.576,291.744 279.182,311.435 282.377 M239.861 294.111 C 252.595 296.526,254.559 298.769,284.648 345.269 C 286.559 348.223,290.662 354.437,293.765 359.079 C 306.164 377.626,307.703 388.647,299.635 401.129 C 291.419 413.841,279.183 417.927,262.148 413.645 C 241.610 408.484,223.542 408.442,206.138 413.516 C 184.085 419.945,165.001 407.735,163.824 386.445 C 163.219 375.487,162.261 377.315,193.241 330.299 C 198.104 322.918,203.935 314.062,206.198 310.619 C 215.052 297.149,226.438 291.565,239.861 294.111"></path>
        </symbol>
        <symbol id="icon-map" viewBox="0 0 20 20">
            <title>map</title>
            <path d="M19.447 3.718l-6-3c-0.281-0.141-0.613-0.141-0.895 0l-5.63 2.815-5.606-1.869c-0.306-0.102-0.64-0.051-0.901 0.138s-0.415 0.49-0.415 0.811v13.001c0 0.379 0.214 0.725 0.553 0.894l6 3c0.141 0.070 0.294 0.106 0.447 0.106s0.307-0.035 0.447-0.106l5.63-2.814 5.606 1.869c0.305 0.1 0.64 0.049 0.901-0.139s0.415-0.49 0.415-0.81v-13.002c0.001-0.379-0.213-0.725-0.552-0.894zM8 5.231l4-2v11.763l-4 2v-11.763zM2 4l4 1.333v11.661l-4-2v-10.994zM18 16.227l-4-1.334v-11.662l4 2v10.996z"></path>
        </symbol>
        <symbol id="icon-star" viewBox="0 0 20 20">
            <title>star</title>
            <path d="M10 1.3l2.388 6.722h6.412l-5.232 3.948 1.871 6.928-5.439-4.154-5.438 4.154 1.87-6.928-5.233-3.948h6.412l2.389-6.722z"></path>
        </symbol>
    </defs>
</svg>
